<?xml version="1.0" encoding="utf-8"?>
<!-- Generator: Adobe Illustrator 25.0.1, SVG Export Plug-In . SVG Version: 6.00 Build 0)  -->
<svg version="1.1" id="Ebene_1" xmlns="http://www.w3.org/2000/svg" xmlns:xlink="http://www.w3.org/1999/xlink" x="0px" y="0px"
	 viewBox="0 0 269.69 271.97" style="enable-background:new 0 0 269.69 271.97;" xml:space="preserve" width="64" height="64">
<style type="text/css">
	.st0{fill:#EF776E;}
	.st1{fill:#65C2C7;}
	.st2{fill:#71BA6E;}
</style>
<g id="Gruppe_44" transform="translate(-0.001 0)">
	<path id="Pfad_103" class="st0" d="M28.24,68.98l52.93,47.91c2.13,2.21,5.31,3.05,8.25,2.2l19.51-4.72c3.18-0.8,5.6-3.4,6.18-6.63
		l4.74-19.73c0.84-2.97,0-6.16-2.19-8.33l-47.8-52.62c-2.91-3.55-5.75-3.19-8.8-0.13L28,59.52c-2.56,2.05-2.97,5.78-0.92,8.34
		c0.34,0.42,0.73,0.79,1.16,1.1"/>
	<path id="Pfad_107" class="st1" d="M99.23,167.05l5.4-20.11c0.88-3.1,0.12-6.44-2.03-8.85l-14.55-13.85
		c-2.12-2.22-5.3-3.07-8.25-2.22l-69.8,15.03c-3.26,0.33-5.63,3.24-5.3,6.5c0.05,0.53,0.18,1.06,0.38,1.56l12.33,44.74
		c0.37,2.99,3.09,5.12,6.08,4.76c0.56-0.07,1.11-0.22,1.63-0.46l68.07-20.98c2.98-0.8,5.29-3.14,6.06-6.12"/>
	<path id="Pfad_104" class="st1" d="M172.1,101.44l-5.4,20.11c-0.88,3.1-0.11,6.44,2.03,8.85l14.55,13.85
		c1.99,2.36,5.12,3.4,8.13,2.72l69.93-15.53c3.25-0.33,5.62-3.23,5.29-6.49c-0.06-0.54-0.19-1.08-0.39-1.59l-12.31-44.74
		c-0.37-2.99-3.09-5.12-6.08-4.76c-0.56,0.07-1.11,0.22-1.63,0.46l-68.08,20.98C175.17,96.12,172.86,98.46,172.1,101.44"/>
	<path id="Pfad_105" class="st2" d="M125.2,86.68l14.53,13.85c2.11,2.23,5.29,3.08,8.23,2.2l20.03-4.57
		c2.97-0.8,5.29-3.13,6.07-6.11l21.6-68.28c1.1-4.12,0.12-6.6-4.02-7.71L146.26,3.92c-4.13-1.12-6.2,0.52-7.32,4.66l-15.96,69.79
		c-0.82,2.97,0.02,6.15,2.2,8.33"/>
	<path id="Pfad_106" class="st0" d="M243.08,199.53l-52.93-47.94c-2.13-2.21-5.31-3.06-8.25-2.2l-20.18,5.12
		c-3.05,1.01-5.38,3.5-6.18,6.62l-4.74,19.75c-0.92,2.97-0.07,6.2,2.2,8.32l48.47,52.23c2.01,2.46,5.63,2.83,8.09,0.82
		c0.26-0.21,0.49-0.44,0.71-0.69l33.04-32.6c2.56-2.02,2.99-5.74,0.96-8.29C243.93,200.22,243.53,199.84,243.08,199.53"/>
	<path id="Pfad_108" class="st2" d="M145.62,181.69l-14.53-13.85c-2.12-2.23-5.31-3.09-8.27-2.22l-19.51,4.72
		c-2.97,0.81-5.28,3.14-6.06,6.12l-21.59,68.27c-1.11,4.14-0.14,6.61,4,7.72l45.37,12.15c4.14,1.1,6.23-0.54,7.34-4.68l15.42-69.91
		C148.63,187.04,147.8,183.86,145.62,181.69"/>
</g>
</svg>
